<svg width="41" height="39" viewBox="0 0 41 39" fill="none" xmlns="http://www.w3.org/2000/svg">
<path d="M7.22681 9.15009H35.8491C36.4291 9.15011 37.0026 9.26942 37.5327 9.50034C38.0628 9.73127 38.5378 10.0687 38.9269 10.4908C39.3161 10.9129 39.6108 11.4104 39.7921 11.9512C39.9734 12.492 40.0373 13.0641 39.9796 13.6306L38.7342 25.8556C38.6318 26.8611 38.1524 27.7934 37.3892 28.4715C36.6259 29.1496 35.6332 29.5251 34.6038 29.5252H14.7819C13.8219 29.5255 12.8915 29.1993 12.1489 28.6019C11.4064 28.0045 10.8978 27.173 10.7096 26.2489L7.22681 9.15009Z" stroke="black" stroke-width="2" stroke-linejoin="round"/>
<path d="M7.22676 9.15002L5.54553 2.54239C5.4331 2.10179 5.1739 1.7107 4.80913 1.43125C4.44436 1.1518 3.99492 1.00001 3.53221 1H1M13.4535 37.6751H17.6047M30.0582 37.6751H34.2094" stroke="black" stroke-width="2" stroke-linecap="round" stroke-linejoin="round"/>
</svg>
