<svg width="116" height="51" viewBox="0 0 116 51" fill="none" xmlns="http://www.w3.org/2000/svg">
<path d="M11.9691 41.4375C11.194 41.4388 10.4223 41.337 9.67409 41.1347C7.42834 40.4943 5.52306 38.9991 4.36701 36.9701C3.21095 34.941 2.89622 32.5397 3.49034 30.2812L7.20378 16.1925C7.49298 15.0523 8.0071 13.9814 8.71595 13.0426C9.4248 12.1039 10.3141 11.3162 11.3316 10.7259C12.3223 10.1521 13.417 9.78056 14.5524 9.63283C15.6877 9.4851 16.8411 9.56412 17.9457 9.86531C19.1198 10.1914 20.2135 10.7578 21.1572 11.5287C22.101 12.2997 22.8743 13.2583 23.4282 14.3437H27.5719C28.1233 13.2565 28.8959 12.2965 29.84 11.5253C30.7841 10.7541 31.879 10.1887 33.0544 9.86531C34.159 9.56412 35.3123 9.4851 36.4477 9.63283C37.583 9.78056 38.6777 10.1521 39.6685 10.7259C40.681 11.3147 41.567 12.098 42.2755 13.0308C42.9839 13.9635 43.5008 15.0272 43.7963 16.1606L47.5097 30.2812C48.1127 32.5463 47.8005 34.9576 46.6405 36.9943C45.4804 39.0311 43.5658 40.5297 41.31 41.1666C40.2054 41.4677 39.0521 41.5468 37.9168 41.399C36.7814 41.2513 35.6867 40.8798 34.696 40.3059C33.6817 39.7193 32.7944 38.9366 32.0857 38.0035C31.3771 37.0705 30.8612 36.0057 30.5682 34.8712L30.2813 33.4687H20.7188L20.3522 34.8394C20.0592 35.9738 19.5433 37.0386 18.8346 37.9717C18.1259 38.9047 17.2386 39.6874 16.2244 40.2741C14.9294 41.0209 13.4639 41.4216 11.9691 41.4375V41.4375ZM15.6666 12.75C14.7048 12.7533 13.7603 13.0059 12.9253 13.4831C11.6166 14.251 10.6654 15.5059 10.2797 16.9734L6.56628 31.0622C6.1777 32.5137 6.37405 34.0597 7.11312 35.368C7.85219 36.6762 9.07501 37.6424 10.5188 38.0587C11.2161 38.2489 11.9441 38.299 12.6609 38.206C13.3776 38.113 14.0688 37.8787 14.6944 37.5169C15.3458 37.1408 15.9154 36.6383 16.3697 36.0389C16.8241 35.4395 17.154 34.7553 17.34 34.0266L18.3282 30.2812H32.6719L33.6441 34.0266C33.8334 34.7539 34.1646 35.4367 34.6187 36.0357C35.0727 36.6347 35.6406 37.138 36.2897 37.5169C36.9184 37.8784 37.6123 38.1123 38.3315 38.2053C39.0508 38.2983 39.7813 38.2485 40.4813 38.0587C41.9268 37.6463 43.1511 36.68 43.8882 35.3699C44.6253 34.0598 44.8157 32.5118 44.4178 31.0622L40.7044 16.9734C40.5194 16.2464 40.1916 15.5633 39.7401 14.9641C39.2887 14.3649 38.7226 13.8615 38.0747 13.4831C37.446 13.1216 36.7522 12.8877 36.0329 12.7947C35.3137 12.7017 34.5831 12.7515 33.8832 12.9412C33.0175 13.188 32.2232 13.6377 31.5663 14.2531C30.9093 14.8685 30.4087 15.6317 30.106 16.4794L29.7235 17.5312H21.2766L20.8941 16.4794C20.5886 15.6305 20.0852 14.8668 19.4255 14.2515C18.7659 13.6361 17.969 13.187 17.101 12.9412C16.6332 12.8151 16.151 12.7508 15.6666 12.75V12.75Z" fill="black"/>
<path d="M15.9375 25.5C15.3071 25.5 14.6908 25.3131 14.1666 24.9628C13.6424 24.6126 13.2339 24.1147 12.9926 23.5323C12.7514 22.9499 12.6883 22.309 12.8112 21.6907C12.9342 21.0723 13.2378 20.5044 13.6836 20.0586C14.1294 19.6128 14.6973 19.3092 15.3157 19.1862C15.934 19.0633 16.5749 19.1264 17.1573 19.3676C17.7397 19.6089 18.2376 20.0174 18.5878 20.5416C18.9381 21.0658 19.125 21.6821 19.125 22.3125C19.125 23.1579 18.7892 23.9686 18.1914 24.5664C17.5936 25.1642 16.7829 25.5 15.9375 25.5Z" fill="black"/>
<path d="M35.0625 20.7188C35.9427 20.7188 36.6562 20.0052 36.6562 19.125C36.6562 18.2448 35.9427 17.5312 35.0625 17.5312C34.1823 17.5312 33.4688 18.2448 33.4688 19.125C33.4688 20.0052 34.1823 20.7188 35.0625 20.7188Z" fill="black"/>
<path d="M35.0625 27.0938C35.9427 27.0938 36.6562 26.3802 36.6562 25.5C36.6562 24.6198 35.9427 23.9062 35.0625 23.9062C34.1823 23.9062 33.4688 24.6198 33.4688 25.5C33.4688 26.3802 34.1823 27.0938 35.0625 27.0938Z" fill="black"/>
<path d="M31.875 23.9062C32.7552 23.9062 33.4688 23.1927 33.4688 22.3125C33.4688 21.4323 32.7552 20.7188 31.875 20.7188C30.9948 20.7188 30.2812 21.4323 30.2812 22.3125C30.2812 23.1927 30.9948 23.9062 31.875 23.9062Z" fill="black"/>
<path d="M38.25 23.9062C39.1302 23.9062 39.8438 23.1927 39.8438 22.3125C39.8438 21.4323 39.1302 20.7188 38.25 20.7188C37.3698 20.7188 36.6562 21.4323 36.6562 22.3125C36.6562 23.1927 37.3698 23.9062 38.25 23.9062Z" fill="black"/>
<path d="M62.0576 33.3809C62.0576 33.1641 62.0195 32.9707 61.9434 32.8008C61.873 32.625 61.75 32.4668 61.5742 32.3262C61.3984 32.1797 61.1553 32.0449 60.8447 31.9219C60.5342 31.7988 60.1416 31.6816 59.667 31.5703C59.0986 31.4297 58.5859 31.2686 58.1289 31.0869C57.6719 30.8994 57.2793 30.6826 56.9512 30.4365C56.6289 30.1846 56.3799 29.8945 56.2041 29.5664C56.0342 29.2383 55.9492 28.8604 55.9492 28.4326C55.9492 28.0225 56.04 27.6475 56.2217 27.3076C56.4033 26.9619 56.6611 26.6631 56.9951 26.4111C57.3291 26.1592 57.7305 25.9658 58.1992 25.8311C58.668 25.6904 59.1895 25.6201 59.7637 25.6201C60.584 25.6201 61.2842 25.7637 61.8643 26.0508C62.4502 26.332 62.8984 26.71 63.209 27.1846C63.5195 27.6533 63.6748 28.1719 63.6748 28.7402H62.04C62.04 28.3945 61.9551 28.0869 61.7852 27.8174C61.6211 27.5479 61.3691 27.3369 61.0293 27.1846C60.6953 27.0264 60.2676 26.9473 59.7461 26.9473C59.2598 26.9473 58.8555 27.0117 58.5332 27.1406C58.2109 27.2695 57.9707 27.4453 57.8125 27.668C57.6543 27.8906 57.5752 28.1426 57.5752 28.4238C57.5752 28.623 57.6221 28.8047 57.7158 28.9688C57.8096 29.1328 57.959 29.2822 58.1641 29.417C58.3691 29.5518 58.6357 29.6807 58.9639 29.8037C59.292 29.9268 59.6904 30.0469 60.1592 30.1641C60.7275 30.3047 61.2314 30.4717 61.6709 30.665C62.1104 30.8584 62.4795 31.084 62.7783 31.3418C63.083 31.5996 63.3115 31.8955 63.4639 32.2295C63.6221 32.5635 63.7012 32.9414 63.7012 33.3633C63.7012 33.791 63.6074 34.1777 63.4199 34.5234C63.2383 34.8633 62.9746 35.1533 62.6289 35.3936C62.2891 35.6338 61.8789 35.8184 61.3984 35.9473C60.9238 36.0762 60.3965 36.1406 59.8164 36.1406C59.3008 36.1406 58.791 36.0762 58.2871 35.9473C57.7891 35.8125 57.335 35.6133 56.9248 35.3496C56.5205 35.0801 56.1982 34.7461 55.958 34.3477C55.7178 33.9434 55.5977 33.4717 55.5977 32.9326H57.2324C57.2324 33.2725 57.2998 33.5625 57.4346 33.8027C57.5693 34.043 57.7568 34.2393 57.9971 34.3916C58.2373 34.5381 58.5127 34.6465 58.8232 34.7168C59.1338 34.7871 59.4648 34.8223 59.8164 34.8223C60.3027 34.8223 60.7129 34.7637 61.0469 34.6465C61.3809 34.5234 61.6328 34.3535 61.8027 34.1367C61.9727 33.9199 62.0576 33.668 62.0576 33.3809ZM72.7188 30.2783V31.623H66.8037V30.2783H72.7188ZM67.1289 25.7607V36H65.5029V25.7607H67.1289ZM74.0635 25.7607V36H72.4375V25.7607H74.0635ZM85.085 30.5947V31.1748C85.085 31.9482 84.9795 32.6426 84.7686 33.2578C84.5576 33.8672 84.2559 34.3887 83.8633 34.8223C83.4707 35.25 82.999 35.5781 82.4482 35.8066C81.9033 36.0293 81.2939 36.1406 80.6201 36.1406C79.958 36.1406 79.3516 36.0293 78.8008 35.8066C78.2559 35.5781 77.7812 35.25 77.377 34.8223C76.9785 34.3887 76.6709 33.8672 76.4541 33.2578C76.2373 32.6426 76.1289 31.9482 76.1289 31.1748V30.5947C76.1289 29.8213 76.2373 29.1299 76.4541 28.5205C76.6709 27.9053 76.9756 27.3809 77.3682 26.9473C77.7666 26.5137 78.2383 26.1855 78.7832 25.9629C79.334 25.7344 79.9404 25.6201 80.6025 25.6201C81.2822 25.6201 81.8945 25.7344 82.4395 25.9629C82.9902 26.1855 83.4619 26.5137 83.8545 26.9473C84.2529 27.3809 84.5576 27.9053 84.7686 28.5205C84.9795 29.1299 85.085 29.8213 85.085 30.5947ZM83.4766 31.1748V30.5771C83.4766 29.9971 83.4121 29.4844 83.2832 29.0391C83.1543 28.5938 82.9668 28.2188 82.7207 27.9141C82.4746 27.6094 82.1729 27.3779 81.8154 27.2197C81.458 27.0615 81.0537 26.9824 80.6025 26.9824C80.1689 26.9824 79.7764 27.0615 79.4248 27.2197C79.0732 27.3779 78.7715 27.6094 78.5195 27.9141C78.2734 28.2188 78.083 28.5938 77.9482 29.0391C77.8135 29.4844 77.7461 29.9971 77.7461 30.5771V31.1748C77.7461 31.7549 77.8135 32.2705 77.9482 32.7217C78.083 33.167 78.2764 33.5449 78.5283 33.8555C78.7803 34.1602 79.082 34.3916 79.4336 34.5498C79.791 34.708 80.1865 34.7871 80.6201 34.7871C81.0771 34.7871 81.4814 34.708 81.833 34.5498C82.1846 34.3916 82.4834 34.1602 82.7295 33.8555C82.9756 33.5449 83.1602 33.167 83.2832 32.7217C83.4121 32.2705 83.4766 31.7549 83.4766 31.1748ZM91.2637 32.1504H88.3457V30.8057H91.2637C91.8027 30.8057 92.2393 30.7295 92.5732 30.5771C92.9072 30.4189 93.1533 30.2051 93.3115 29.9355C93.4697 29.666 93.5488 29.3555 93.5488 29.0039C93.5488 28.6699 93.4697 28.3594 93.3115 28.0723C93.1533 27.7852 92.9072 27.5537 92.5732 27.3779C92.2393 27.1963 91.8027 27.1055 91.2637 27.1055H88.7852V36H87.1592V25.7607H91.2637C92.1016 25.7607 92.8105 25.9014 93.3906 26.1826C93.9766 26.458 94.4189 26.8389 94.7178 27.3252C95.0225 27.8057 95.1748 28.3594 95.1748 28.9863C95.1748 29.4785 95.0898 29.9209 94.9199 30.3135C94.75 30.7002 94.498 31.0312 94.1641 31.3066C93.8301 31.582 93.4199 31.793 92.9336 31.9395C92.4473 32.0801 91.8906 32.1504 91.2637 32.1504Z" fill="black"/>
<path d="M64.4746 16.7969V20.6816C64.3281 20.8691 64.0996 21.0771 63.7891 21.3057C63.4844 21.5342 63.0654 21.7305 62.5322 21.8945C62.0049 22.0586 61.3311 22.1406 60.5107 22.1406C59.8311 22.1406 59.207 22.0322 58.6387 21.8154C58.0762 21.5928 57.5869 21.2734 57.1709 20.8574C56.7607 20.4355 56.4414 19.9229 56.2129 19.3193C55.9902 18.71 55.8789 18.0186 55.8789 17.2451V16.5068C55.8789 15.7393 55.9785 15.0537 56.1777 14.4502C56.377 13.8467 56.667 13.334 57.0479 12.9121C57.4346 12.4902 57.9033 12.1709 58.4541 11.9541C59.0107 11.7314 59.6406 11.6201 60.3438 11.6201C61.2109 11.6201 61.9316 11.7607 62.5059 12.042C63.0859 12.3174 63.5342 12.6982 63.8506 13.1846C64.1729 13.6709 64.3779 14.2275 64.4658 14.8545H62.8574C62.793 14.4971 62.667 14.1748 62.4795 13.8877C62.292 13.6006 62.0254 13.375 61.6797 13.2109C61.3398 13.041 60.9004 12.9561 60.3613 12.9561C59.8809 12.9561 59.4619 13.0352 59.1045 13.1934C58.7471 13.3516 58.4482 13.583 58.208 13.8877C57.9736 14.1924 57.7979 14.5645 57.6807 15.0039C57.5693 15.4375 57.5137 15.9326 57.5137 16.4893V17.2451C57.5137 17.8135 57.584 18.3203 57.7246 18.7656C57.8652 19.2051 58.0674 19.5771 58.3311 19.8818C58.6006 20.1865 58.9199 20.418 59.2891 20.5762C59.6641 20.7344 60.083 20.8135 60.5459 20.8135C61.2725 20.8135 61.8027 20.7373 62.1367 20.585C62.4707 20.4268 62.708 20.2832 62.8486 20.1543V18.0625H60.3789V16.7969H64.4746ZM70.8379 13.1934L67.3486 22H65.6875L69.8975 11.7607H70.9609L70.8379 13.1934ZM73.8525 22L70.3896 13.1582L70.2754 11.7607H71.3477L75.5049 22H73.8525ZM73.6152 18.2119V19.5479H67.5332V18.2119H73.6152ZM77.4824 11.7607H79.0117L82.4482 19.7676L85.876 11.7607H87.4053L83.0371 22H81.8506L77.4824 11.7607ZM76.9111 11.7607H78.291L78.5283 18.4668V22H76.9111V11.7607ZM86.6055 11.7607H87.9941V22H86.3682V18.4668L86.6055 11.7607ZM92.1689 11.7607V22H90.543V11.7607H92.1689ZM103.296 11.7607V22H101.67L96.3613 14.3008V22H94.7354V11.7607H96.3613L101.67 19.46V11.7607H103.296ZM113.992 16.7969V20.6816C113.846 20.8691 113.617 21.0771 113.307 21.3057C113.002 21.5342 112.583 21.7305 112.05 21.8945C111.522 22.0586 110.849 22.1406 110.028 22.1406C109.349 22.1406 108.725 22.0322 108.156 21.8154C107.594 21.5928 107.104 21.2734 106.688 20.8574C106.278 20.4355 105.959 19.9229 105.73 19.3193C105.508 18.71 105.396 18.0186 105.396 17.2451V16.5068C105.396 15.7393 105.496 15.0537 105.695 14.4502C105.895 13.8467 106.185 13.334 106.565 12.9121C106.952 12.4902 107.421 12.1709 107.972 11.9541C108.528 11.7314 109.158 11.6201 109.861 11.6201C110.729 11.6201 111.449 11.7607 112.023 12.042C112.604 12.3174 113.052 12.6982 113.368 13.1846C113.69 13.6709 113.896 14.2275 113.983 14.8545H112.375C112.311 14.4971 112.185 14.1748 111.997 13.8877C111.81 13.6006 111.543 13.375 111.197 13.2109C110.857 13.041 110.418 12.9561 109.879 12.9561C109.398 12.9561 108.979 13.0352 108.622 13.1934C108.265 13.3516 107.966 13.583 107.726 13.8877C107.491 14.1924 107.315 14.5645 107.198 15.0039C107.087 15.4375 107.031 15.9326 107.031 16.4893V17.2451C107.031 17.8135 107.102 18.3203 107.242 18.7656C107.383 19.2051 107.585 19.5771 107.849 19.8818C108.118 20.1865 108.438 20.418 108.807 20.5762C109.182 20.7344 109.601 20.8135 110.063 20.8135C110.79 20.8135 111.32 20.7373 111.654 20.585C111.988 20.4268 112.226 20.2832 112.366 20.1543V18.0625H109.896V16.7969H113.992Z" fill="black"/>
<line x1="51.5" y1="38" x2="51.5" y2="10" stroke="#A5A5A5"/>
</svg>
